# xmcd
#
# Track frame offsets: 
#        150
#        23410
#        51985
#        77607
#        104652
#        124872
#
# Disc length: 1911 seconds
#
# Revision: 0
# Processed by: cddbd v1.5.2PL0 Copyright (c) Steve Scherf et al.
# Submitted via: ExactAudioCopy v0.99pb5
#
DISCID=45077506
DTITLE=Hammer - Japan Only III Rare Tracks
DYEAR=1992
DGENRE=Hip-Hop
TTITLE0=2 Legit 2 Quit (Mega Mix Edit) (Introducing Saja)
TTITLE1=Gaining Momentum (Hard Hammer Mix)
TTITLE2=Addams Groove (Hammer House Of Horror Mix)
TTITLE3=Good To Go (Still Goin' Mix)
TTITLE4=Till You Drop (Radio Edit)
TTITLE5=U Can't Touch This (Video Mix)
EXTD=
EXTT0=
EXTT1=
EXTT2=
EXTT3=
EXTT4=
EXTT5=
PLAYORDER=
